<?xml version="1.0" standalone="no"?>
<!DOCTYPE svg PUBLIC "-//W3C//DTD SVG 20010904//EN"
 "http://www.w3.org/TR/2001/REC-SVG-20010904/DTD/svg10.dtd">
<svg version="1.0" xmlns="http://www.w3.org/2000/svg"
 width="72.000000pt" height="74.000000pt" viewBox="0 0 72.000000 74.000000"
 preserveAspectRatio="xMidYMid meet">

<g transform="translate(0.000000,74.000000) scale(0.100000,-0.100000)"
fill="#000000" stroke="none">
<path d="M255 548 c-19 -14 -23 -24 -16 -31 7 -7 16 -5 29 6 16 15 62 24 62
13 0 -3 -5 -17 -10 -32 -8 -19 -8 -37 0 -58 14 -40 0 -52 -38 -32 -38 20 -53
20 -46 2 9 -23 54 -35 134 -35 58 0 81 4 100 19 35 26 17 37 -27 16 -44 -21
-57 -11 -41 31 9 25 9 38 -1 59 -17 38 -2 47 42 25 44 -22 58 -11 22 17 -37
29 -174 29 -210 0z m121 -52 c7 -31 2 -58 -13 -63 -15 -5 -26 32 -19 63 8 31
24 31 32 0z"/>
<path d="M26 267 c-12 -9 -17 -23 -14 -47 2 -27 9 -37 31 -44 21 -8 31 -6 45
7 16 17 15 17 -14 11 -21 -4 -34 -1 -43 10 -27 32 14 70 50 47 11 -6 19 -7 19
-1 0 10 -32 30 -47 30 -5 0 -17 -6 -27 -13z"/>
<path d="M130 225 c0 -30 5 -55 10 -55 6 0 10 11 10 25 0 21 5 25 29 25 25 0
30 -5 34 -27 2 -16 4 -1 4 32 0 33 -2 50 -4 38 -6 -31 -63 -34 -63 -3 0 11 -4
20 -10 20 -5 0 -10 -25 -10 -55z"/>
<path d="M271 228 c-12 -28 -18 -54 -15 -57 4 -3 9 0 11 7 6 15 65 16 81 0 19
-19 15 5 -10 57 -12 25 -27 45 -34 45 -6 0 -21 -23 -33 -52z m44 -16 c-22 -5
-29 3 -21 25 7 17 8 17 22 -2 13 -18 13 -20 -1 -23z"/>
<path d="M390 225 c0 -33 4 -55 11 -55 6 0 10 15 9 33 -3 52 -1 53 31 9 17
-23 33 -42 35 -42 2 0 3 26 2 58 -1 35 -3 44 -5 25 -5 -41 -12 -41 -38 -3 -31
46 -45 38 -45 -25z"/>
<path d="M530 225 l0 -55 34 0 c19 0 38 5 41 10 4 6 -9 10 -30 10 -40 0 -45
23 -7 28 30 5 28 22 -3 22 -14 0 -25 5 -25 10 0 6 14 10 30 10 17 0 30 5 30
10 0 6 -16 10 -35 10 l-35 0 0 -55z"/>
<path d="M640 226 l0 -56 40 0 c22 0 40 5 40 10 0 6 -13 10 -30 10 -28 0 -30
2 -30 39 0 22 -4 43 -10 46 -6 4 -10 -15 -10 -49z"/>
</g>
</svg>
