<?xml version="1.0" standalone="no"?>
<!DOCTYPE svg PUBLIC "-//W3C//DTD SVG 20010904//EN"
 "http://www.w3.org/TR/2001/REC-SVG-20010904/DTD/svg10.dtd">
<svg version="1.0" xmlns="http://www.w3.org/2000/svg"
 width="840.000000pt" height="859.000000pt" viewBox="0 0 840.000000 859.000000"
 preserveAspectRatio="xMidYMid meet">
<metadata>
Created by potrace 1.16, written by Peter Selinger 2001-2019
</metadata>
<g transform="translate(0.000000,859.000000) scale(0.100000,-0.100000)"
fill="#000000" stroke="none">
<path d="M3493 6649 c-279 -36 -554 -188 -733 -405 -66 -81 -127 -171 -119
-178 27 -22 325 -164 327 -156 9 25 97 133 145 176 156 140 322 204 529 204
99 0 248 -22 248 -37 0 -4 -17 -29 -38 -57 -96 -127 -158 -258 -199 -426 -34
-136 -38 -356 -9 -490 36 -167 108 -325 206 -455 l49 -65 -37 -9 c-232 -62
-468 -23 -658 107 -60 40 -171 151 -213 209 l-22 33 -160 -81 c-87 -44 -159
-84 -159 -88 0 -25 99 -150 190 -241 154 -153 310 -242 527 -302 67 -19 105
-22 273 -22 180 0 203 2 292 26 53 15 136 45 186 68 l89 42 49 -25 c77 -39
216 -85 311 -103 134 -25 365 -16 498 20 269 73 510 246 666 481 l40 59 -78
39 c-43 22 -80 41 -82 43 -2 2 12 39 32 81 68 146 82 216 82 408 0 190 -14
258 -80 402 l-34 73 22 14 c12 8 48 27 80 42 31 16 57 32 57 37 0 25 -104 162
-185 243 -139 141 -311 244 -496 298 -270 78 -566 52 -812 -71 l-67 -33 -83
39 c-196 93 -419 128 -634 100z m1487 -384 c156 -40 340 -171 435 -309 l38
-55 59 30 59 30 28 -63 c88 -194 110 -399 65 -598 -17 -77 -56 -182 -84 -228
l-20 -32 -57 32 -56 32 -16 -24 c-102 -156 -272 -279 -457 -331 -123 -35 -379
-29 -443 11 -9 5 5 30 43 81 96 127 168 298 201 474 25 130 16 344 -19 479
-31 121 -115 298 -184 389 -29 37 -52 70 -52 71 0 9 103 29 175 35 96 7 197
-1 285 -24z m-715 -285 c109 -142 158 -288 157 -475 0 -177 -44 -315 -147
-461 -67 -94 -64 -93 -122 -16 -103 136 -152 269 -160 435 -11 215 43 379 181
549 17 20 33 35 38 32 4 -3 28 -31 53 -64z"/>
<path d="M590 3249 c-143 -18 -297 -100 -394 -211 -26 -29 -70 -99 -98 -155
-43 -88 -54 -103 -74 -103 -20 0 -24 -5 -24 -30 0 -22 5 -30 18 -30 15 0 17
-13 18 -123 0 -107 4 -132 29 -207 66 -194 221 -351 408 -414 266 -89 576 22
727 261 17 26 30 50 30 54 0 4 -30 29 -67 55 -38 26 -82 58 -100 71 l-31 24
-26 -43 c-38 -64 -114 -134 -181 -165 -53 -25 -71 -28 -160 -28 -89 0 -106 3
-158 28 -161 79 -250 256 -223 441 l7 46 605 0 604 0 0 -375 0 -375 120 0 120
0 0 280 0 280 325 0 325 0 0 -280 0 -280 125 0 125 0 0 375 0 375 266 0 c146
0 263 -4 260 -8 -7 -12 -326 -734 -326 -738 0 -3 66 -3 147 -2 l147 3 55 123
54 122 332 0 332 0 54 -122 55 -123 147 -3 c81 -1 147 0 147 3 0 3 -68 157
-151 343 -83 185 -158 352 -165 370 l-14 32 265 0 265 0 0 -375 0 -375 125 0
125 0 0 375 0 375 78 0 77 0 270 -375 270 -375 98 0 97 0 0 375 0 375 225 0
225 0 0 -375 0 -375 495 0 495 0 0 125 0 125 -370 0 -370 0 0 130 0 130 300 0
300 0 0 120 0 120 240 0 240 0 0 -375 0 -375 475 0 475 0 0 125 0 125 -347 2
-348 3 -3 248 -2 247 360 0 360 0 0 30 0 30 -357 2 -358 3 -3 228 -2 227 -125
0 -125 0 0 -230 0 -230 -540 0 -541 0 3 103 3 102 318 3 317 2 0 125 0 125
-445 0 -445 0 0 -230 0 -230 -222 2 -223 3 -3 228 -2 227 -120 0 -120 0 -2
-227 -3 -228 -107 -3 -107 -3 -163 230 -163 230 -177 1 -178 0 0 -230 0 -230
-278 0 -279 0 -103 230 -103 230 -175 -2 -176 -3 -100 -227 -100 -228 -278 0
-278 0 0 230 0 230 -125 0 -125 0 0 -225 0 -225 -325 0 -325 0 0 225 0 225
-120 0 -120 0 0 -230 0 -230 -205 0 c-113 0 -205 2 -205 4 0 2 32 27 70 55 39
28 70 55 70 61 0 21 -68 117 -117 166 -103 103 -230 165 -373 183 -46 6 -85
10 -85 10 0 -1 -29 -5 -65 -10z m225 -278 c28 -12 67 -34 88 -48 38 -26 107
-111 107 -132 0 -8 -96 -11 -340 -11 -287 0 -340 2 -340 14 0 22 98 124 147
152 98 58 240 68 338 25z m2844 -178 c1 -10 -22 -13 -85 -13 -73 0 -85 2 -80
15 3 9 22 55 43 102 l37 87 42 -89 c24 -50 43 -96 43 -102z m88 -191 l52 -117
-216 -3 c-119 -1 -218 -1 -219 1 -2 2 14 46 37 98 23 52 45 104 50 117 8 21
13 22 126 22 l118 -1 52 -117z m1663 -4 c0 -72 -4 -118 -9 -113 -15 16 -161
225 -161 230 0 3 38 5 85 5 l85 0 0 -122z"/>
</g>
</svg>
