<?xml version="1.0" standalone="no"?>
<!DOCTYPE svg PUBLIC "-//W3C//DTD SVG 20010904//EN"
 "http://www.w3.org/TR/2001/REC-SVG-20010904/DTD/svg10.dtd">
<svg version="1.0" xmlns="http://www.w3.org/2000/svg"
 width="108.000000pt" height="58.000000pt" viewBox="0 0 108.000000 58.000000"
 preserveAspectRatio="xMidYMid meet">

<g transform="translate(0.000000,58.000000) scale(0.100000,-0.100000)"
fill="#000000" stroke="none">
<path d="M0 290 l0 -290 540 0 540 0 0 290 0 290 -540 0 -540 0 0 -290z m550
191 c105 9 157 3 191 -20 19 -13 42 -34 52 -47 17 -23 17 -24 -12 -38 -26 -14
-30 -14 -42 0 -20 25 -65 44 -102 44 l-35 0 19 -37 c25 -49 25 -127 -1 -178
-11 -22 -20 -41 -20 -42 0 -2 14 -3 31 -3 35 0 64 13 99 46 25 23 25 23 50 4
30 -23 22 -42 -30 -78 -51 -34 -106 -46 -154 -32 -51 15 -61 15 -112 0 -57
-16 -115 1 -167 49 l-41 38 28 18 c26 17 27 17 49 -2 32 -30 62 -43 97 -43
l30 0 -20 40 c-26 51 -27 133 -1 183 l19 37 -30 0 c-33 0 -63 -13 -95 -43 -21
-19 -23 -19 -49 -2 l-26 17 28 30 c47 49 100 70 164 63 30 -3 66 -5 80 -4z"/>
<path d="M522 363 c-20 -38 -23 -81 -8 -118 19 -45 37 -42 54 11 10 33 10 47
0 79 -15 44 -32 55 -46 28z"/>
</g>
</svg>
